<svg id="Layer_1" data-name="Layer 1" xmlns="http://www.w3.org/2000/svg" viewBox="0 0 834.62 194.61"><defs><style>.cls-1{fill:#3640e8;}</style></defs><path class="cls-1" d="M228.32,97.35c0-18,13.33-31.92,31.92-31.92A30.57,30.57,0,0,1,286.63,79.9L276.2,86c-3-5.44-8.95-8.77-16-8.77-12,0-19.91,8.33-19.91,20.17s7.89,20.08,19.91,20.08c7,0,13.06-3.33,16-8.68l10.43,6c-5.17,8.77-15.08,14.47-26.39,14.47C241.65,129.27,228.32,115.24,228.32,97.35Z"/><path class="cls-1" d="M291.07,106.12a23.2,23.2,0,1,1,23.15,23.15A22.91,22.91,0,0,1,291.07,106.12Zm35.07,0A11.66,11.66,0,0,0,314.22,94c-6.67,0-11.84,5-11.84,12.1s5.17,12.1,11.84,12.1A11.66,11.66,0,0,0,326.14,106.12Z"/><path class="cls-1" d="M386,101.12V128H374.67V102.52c0-6-3.6-9-8.68-9-5.53,0-9.65,3.25-9.65,10.88V128H345V84.2h11.31v4.91c2.63-4,7.19-6.14,13.07-6.14C378.7,83,386,89.46,386,101.12Z"/><path class="cls-1" d="M410,95.07v18.24c0,4.74,3.42,4.82,9.91,4.47V128c-15.88,1.76-21.23-2.89-21.23-14.73V95.07H391V84.2h7.62V75.34L410,71.92V84.2h9.91V95.07Z"/><path class="cls-1" d="M449.27,119a12.16,12.16,0,0,0,9.82-4.38l9.12,5.26c-4.12,6-10.7,9.38-19.12,9.38-14.73,0-24-10.08-24-23.15S434.45,83,448.22,83c13,0,22.18,10.26,22.18,23.15a25.49,25.49,0,0,1-.44,4.65H436.9C438.48,116.56,443.31,119,449.27,119Zm9.82-17c-1.4-6.32-6.14-8.86-10.87-8.86-6.06,0-10.18,3.25-11.49,8.86Z"/><path class="cls-1" d="M519,101.12V128H507.73V102.52c0-6-3.6-9-8.68-9-5.53,0-9.65,3.25-9.65,10.88V128H478.09V84.2H489.4v4.91c2.63-4,7.19-6.14,13.07-6.14C511.76,83,519,89.46,519,101.12Z"/><path class="cls-1" d="M543,95.07v18.24c0,4.74,3.42,4.82,9.91,4.47V128c-15.88,1.76-21.22-2.89-21.22-14.73V95.07h-7.63V84.2h7.63V75.34L543,71.92V84.2h9.91V95.07Z"/><path class="cls-1" d="M594.09,115.24c0,9.47-8.24,14-17.63,14-8.77,0-15.26-3.68-18.41-10.43l9.82-5.53c1.23,3.6,4.21,5.7,8.59,5.7,3.6,0,6-1.23,6-3.77,0-6.4-22.62-2.89-22.62-18.33C559.89,88,567.52,83,576.55,83c7.1,0,13.24,3.24,16.66,9.29l-9.64,5.27a7.43,7.43,0,0,0-7-4.48c-2.81,0-5.09,1.23-5.09,3.6C571.46,103.14,594.09,99.1,594.09,115.24Z"/><path class="cls-1" d="M645.67,84.2v61.38H634.36V122.87c-3.15,4-7.8,6.4-14.2,6.4-11.76,0-21.4-10.08-21.4-23.15S608.4,83,620.16,83c6.4,0,11.05,2.37,14.2,6.4V84.2Zm-11.31,21.92c0-7.37-5.17-12.36-12.1-12.36s-12.19,5-12.19,12.36,5.18,12.36,12.19,12.36S634.36,113.49,634.36,106.12Z"/><path class="cls-1" d="M696.27,84.2V128H685v-4.91c-2.64,4-7.2,6.14-13.07,6.14-9.3,0-16.58-6.49-16.58-18.15V84.2h11.32v25.52c0,6,3.59,9,8.68,9,5.52,0,9.65-3.25,9.65-10.88V84.2Z"/><path class="cls-1" d="M751,84.2V128H739.64v-5.17c-3.16,3.95-7.9,6.4-14.3,6.4-11.66,0-21.31-10.08-21.31-23.15S713.68,83,725.34,83c6.4,0,11.14,2.45,14.3,6.4V84.2Zm-11.31,21.92c0-7.37-5.18-12.36-12.19-12.36s-12.1,5-12.1,12.36,5.17,12.36,12.1,12.36S739.64,113.49,739.64,106.12Z"/><path class="cls-1" d="M785.63,83.32V96c-5.88-.7-13.33,1.93-13.33,11.13v21H761V84.2H772.3v7.54C774.58,85.78,780.1,83.32,785.63,83.32Z"/><path class="cls-1" d="M813.49,119a12.16,12.16,0,0,0,9.82-4.38l9.12,5.26c-4.12,6-10.7,9.38-19.12,9.38-14.73,0-24-10.08-24-23.15S798.67,83,812.44,83c13,0,22.18,10.26,22.18,23.15a26.42,26.42,0,0,1-.43,4.65H801.13C802.7,116.56,807.53,119,813.49,119Zm9.82-17c-1.4-6.32-6.14-8.86-10.87-8.86-6.05,0-10.17,3.25-11.49,8.86Z"/><path class="cls-1" d="M186.25,57.55,184,53.18a97.3,97.3,0,1,0,0,88.26l2.23-4.38L146.49,97.31Zm-16.59,82a83.81,83.81,0,1,1,0-84.53L136.94,87.76,97.31,48.12,48.12,97.31l49.19,49.18,39.63-39.64ZM127.4,97.31,97.31,127.4,67.21,97.31l30.1-30.1Z"/></svg>